<?xml version="1.0"?>
<svg width="512" height="512" xmlns="http://www.w3.org/2000/svg" xmlns:svg="http://www.w3.org/2000/svg">
 <g class="layer">
  <title>Layer 1</title>
  <g id="svg_1">
   <path d="m137,379l281.607,0l42.842,-165.25c30.285,-18.441 50.551,-51.773 50.551,-89.75c0,-57.897 -47.103,-105 -105,-105s-105,47.103 -105,105c0,16.095 3.645,31.354 10.145,45l-173.113,0l-20,-90l-119.032,0l0,30l94.968,0l53.333,240l-11.301,0c-24.813,0 -45,20.187 -45,45s20.187,45 45,45l17.58,0c-1.665,4.695 -2.58,9.742 -2.58,15c0,24.813 20.187,45 45,45s45,-20.187 45,-45c0,-5.258 -0.915,-10.305 -2.58,-15l65.16,0c-1.665,4.695 -2.58,9.742 -2.58,15c0,24.813 20.187,45 45,45s45,-20.187 45,-45c0,-5.258 -0.915,-10.305 -2.58,-15l32.58,0l0,-30l-285,0c-8.271,0 -15,-6.729 -15,-15s6.729,-15 15,-15zm42.032,-30l-13.333,-60l62.499,0l5,60l-54.166,0zm136.666,-60l-5,60l-47.396,0l-5,-60l57.396,0zm-59.896,-30l-5,-60l72.396,0l-5,60l-62.396,0zm85,90l5,-60l65.146,0l-15.556,60l-54.59,0zm77.924,-90l-70.424,0l3.795,-45.534c15.985,9.846 34.791,15.534 54.903,15.534c6.839,0 13.524,-0.665 20.002,-1.919l-8.276,31.919zm-11.726,-210c41.355,0 75,33.645 75,75s-33.645,75 -75,75s-75,-33.645 -75,-75s33.645,-75 75,-75zm-186.302,150l5,60l-66.666,0l-13.333,-60l74.999,0zm-8.698,255c0,8.271 -6.729,15 -15,15s-15,-6.729 -15,-15s6.729,-15 15,-15s15,6.729 15,15zm150,0c0,8.271 -6.729,15 -15,15s-15,-6.729 -15,-15s6.729,-15 15,-15s15,6.729 15,15z" fill="#2cb07b" id="svg_2"/>
   <path d="m389,166l30,0l0,-30l30,0l0,-30l-30,0l0,-30l-30,0l0,30l-30,0l0,30l30,0l0,30z" fill="#2cb07b" id="svg_3"/>
  </g>
 </g>
</svg>