<?xml version="1.0"?>
<svg width="512" height="512" xmlns="http://www.w3.org/2000/svg" xmlns:svg="http://www.w3.org/2000/svg">
 <g class="layer">
  <title>Layer 1</title>
  <path d="m256,335.26563c-71.49219,0 -129.65625,58.16406 -129.65625,129.65625c0,4.13671 0.20313,8.22656 0.58594,12.26171c38.74609,22.69922 82.97265,34.81641 129.07031,34.81641s90.32422,-12.11719 129.07031,-34.81641c0.38282,-4.03906 0.58594,-8.125 0.58594,-12.26171c0,-71.49219 -58.16406,-129.65625 -129.65625,-129.65625zm0,0" fill="#2cb07b" id="svg_1"/>
  <path d="m437.01953,74.98047c-48.35156,-48.35156 -112.63672,-74.98047 -181.01953,-74.98047s-132.66797,26.62891 -181.01953,74.98047c-48.35156,48.35156 -74.98047,112.63672 -74.98047,181.01953c0,68.37891 26.62891,132.66797 74.98047,181.01953c6.88281,6.88672 14.10156,13.3125 21.59765,19.30078c3.35547,-62.85937 43.23829,-116.17578 98.75391,-139.0664c-30.51562,-19.89453 -50.73047,-54.32032 -50.73047,-93.38672c0,-61.42578 49.97266,-111.39844 111.39844,-111.39844s111.39844,49.97266 111.39844,111.39844c0,39.0664 -20.21485,73.49219 -50.73047,93.38672c55.51562,22.89062 95.39844,76.20703 98.75391,139.0664c7.49609,-5.98828 14.71484,-12.41797 21.59765,-19.30078c48.35156,-48.35156 74.98047,-112.64062 74.98047,-181.01953c0,-68.38281 -26.62891,-132.66797 -74.98047,-181.01953zm0,0" fill="#2cb07b" id="svg_2"/>
  <path d="m337.39844,223.86719c0,-44.88672 -36.51563,-81.39844 -81.39844,-81.39844s-81.39844,36.51563 -81.39844,81.39844c0,44.88281 36.51563,81.39844 81.39844,81.39844s81.39844,-36.51563 81.39844,-81.39844zm0,0" fill="#2cb07b" id="svg_3"/>
 </g>
</svg>